<svg width="37" height="37" viewBox="0 0 37 37" fill="none" xmlns="http://www.w3.org/2000/svg">
<circle cx="18.5" cy="18.5" r="18.5" fill="#08776E"/>
<path fill-rule="evenodd" clip-rule="evenodd" d="M19.6265 17.3735H24.8735C25.4965 17.3735 26.0008 17.8778 26 18.5C26 19.123 25.4957 19.6273 24.8735 19.6265C24.6289 19.6273 19.6265 19.6265 19.6265 19.6265V24.8735C19.6265 25.4965 19.1222 26.0008 18.5 26C17.877 26 17.3727 25.4957 17.3735 24.8735C17.3727 24.6289 17.3735 19.6265 17.3735 19.6265H12.1265C11.5035 19.6265 10.9992 19.1222 11 18.5C11 17.877 11.5043 17.3727 12.1265 17.3735C12.3711 17.3727 17.3735 17.3735 17.3735 17.3735V12.1265C17.3735 11.5035 17.8778 10.9992 18.5 11C19.123 11 19.6273 11.5043 19.6265 12.1265C19.6273 12.3711 19.6265 17.3735 19.6265 17.3735Z" fill="white"/>
</svg>
