<svg width="38" height="40" viewBox="0 0 38 40" fill="none" xmlns="http://www.w3.org/2000/svg">
<path fill-rule="evenodd" clip-rule="evenodd" d="M12.6888 2.78196C12.4312 2.90081 12.1677 3.02238 11.8954 3.14785C11.9579 3.19101 12.0051 3.22529 12.0434 3.25306C12.1065 3.29888 12.1452 3.32699 12.1877 3.34803C12.8562 3.67945 13.5251 4.01027 14.194 4.34108C15.8074 5.13904 17.4208 5.937 19.0297 6.74357C19.3323 6.89529 19.5712 6.86961 19.858 6.7264C21.1636 6.07417 22.4717 5.42671 23.7798 4.77925C24.5607 4.39278 25.3415 4.00631 26.1218 3.61882C26.2114 3.57435 26.2944 3.51735 26.3843 3.45567C26.4285 3.42528 26.4745 3.39376 26.5236 3.36203C26.4876 3.33998 26.4566 3.3198 26.4285 3.30153C26.3752 3.26689 26.3325 3.23909 26.2864 3.21829C25.6188 2.91695 24.9509 2.61621 24.283 2.31547C22.663 1.586 21.043 0.85653 19.427 0.118576C19.0945 -0.0333314 18.8206 -0.0443564 18.4836 0.115C17.493 0.583462 16.4955 1.03816 15.498 1.49285C15.0863 1.6805 14.6747 1.86816 14.2635 2.05678C13.7469 2.29376 13.2309 2.53183 12.6888 2.78196ZM0.264363 8.49211L0.26439 8.49209C0.346497 8.44366 0.420889 8.39979 0.499144 8.36378C1.30278 7.99434 2.10668 7.62544 2.91058 7.25654L2.91072 7.25647L2.91106 7.25631C4.60135 6.48065 6.29164 5.70499 7.97946 4.92432C8.30055 4.77581 8.56866 4.73016 8.91472 4.90507C10.5946 5.75443 12.2811 6.59114 13.9677 7.42787L13.9677 7.42787L13.9677 7.42787L13.9677 7.42788C14.6152 7.74912 15.2627 8.07037 15.9099 8.39233C15.9426 8.40861 15.9716 8.43188 16.0113 8.46377C16.0336 8.48162 16.0592 8.50217 16.0907 8.5257C16.0583 8.54908 16.0284 8.57257 15.9996 8.59516C15.9411 8.64109 15.8874 8.68331 15.8272 8.71331C14.8887 9.18087 13.9498 9.64767 13.011 10.1145L13.0109 10.1145L13.0109 10.1145L13.0108 10.1145L13.0103 10.1148L13.0097 10.1151L13.0091 10.1154C11.6155 10.8083 10.222 11.5011 8.82978 12.1965C8.58982 12.3163 8.38843 12.368 8.11431 12.2425C6.2583 11.3934 4.39817 10.5528 2.53804 9.71229L2.53793 9.71225L2.53777 9.71217L2.53715 9.71189L2.53679 9.71173L2.53643 9.71157C1.78877 9.37371 1.0411 9.03586 0.293707 8.69746C0.263248 8.68363 0.237422 8.66012 0.202548 8.62836C0.183147 8.61069 0.160946 8.59047 0.133588 8.56796C0.180069 8.54182 0.223155 8.51641 0.264303 8.49214L0.264363 8.49211ZM10.6181 19.4176C10.6266 19.8426 10.6352 20.2756 10.5551 20.7298C10.4977 20.7083 10.4452 20.6902 10.3963 20.6733C10.3007 20.6403 10.2192 20.6122 10.1438 20.5731C9.86785 20.4302 9.59327 20.2847 9.31869 20.1393C8.77911 19.8535 8.23956 19.5677 7.69016 19.301C7.33914 19.1306 7.22053 18.9167 7.22605 18.5402C7.24158 17.4797 7.23906 16.419 7.23653 15.3582C7.23558 14.9614 7.23464 14.5646 7.23464 14.1677V13.5582L0.0049601 10.1755V10.8686L0.00502142 28.4167C0.00502142 28.4534 0.00612284 28.4903 0.00722415 28.5271C0.00957037 28.6057 0.0119161 28.6842 0.00361096 28.7617C-0.0223907 29.005 0.0935741 29.1614 0.301648 29.2746C0.380902 29.3177 0.457681 29.3651 0.534474 29.4124C0.574264 29.437 0.614059 29.4615 0.654203 29.4855L1.77976 30.1577C7.10206 33.3361 12.4244 36.5146 17.7474 39.692C17.8567 39.7572 17.9698 39.8163 18.0964 39.8825L18.0966 39.8825L18.0966 39.8826L18.0968 39.8826C18.1605 39.9159 18.2277 39.9511 18.2996 39.9896V18.7917C17.5729 18.3322 11.0576 15.3219 10.6171 15.2464L10.6171 17.0821C10.6171 17.2635 10.6179 17.445 10.6188 17.6265L10.6188 17.6271C10.6208 18.04 10.6228 18.4529 10.6145 18.8656C10.6108 19.0488 10.6144 19.2324 10.6181 19.4176ZM37.9885 10.8595V10.1893C37.9141 10.2214 37.8504 10.2484 37.7938 10.2724L37.7936 10.2725L37.7936 10.2725C37.6906 10.3161 37.6111 10.3499 37.5328 10.3864C36.9635 10.6522 36.3946 10.919 35.8258 11.1858L35.8257 11.1858C34.316 11.8939 32.8064 12.6019 31.2878 13.2913C30.8583 13.4863 30.7359 13.7341 30.7438 14.1729C30.7592 15.0211 30.7577 15.8696 30.7562 16.7182V16.7185C30.7552 17.3277 30.7541 17.937 30.7593 18.5462C30.7622 18.888 30.6721 19.1107 30.3314 19.2765C29.7764 19.5467 29.2313 19.8358 28.6861 20.125C28.3998 20.2768 28.1136 20.4286 27.8259 20.5777C27.7532 20.6154 27.6734 20.6398 27.5703 20.6715C27.5145 20.6886 27.4519 20.7078 27.38 20.7322V15.1354L19.6954 18.7303V40C19.7844 39.9495 19.8682 39.9027 19.9483 39.8579L19.9486 39.8577C20.1099 39.7675 20.2562 39.6857 20.3999 39.5998C21.6814 38.8342 22.9626 38.0683 24.2439 37.3025L24.2463 37.301C28.6446 34.672 33.0429 32.043 37.4478 29.4245C37.8511 29.1847 38.0013 28.9307 38 28.469C37.9865 23.7858 37.9873 19.1027 37.9881 14.4195C37.9883 13.2329 37.9885 12.0462 37.9885 10.8595ZM37.5085 8.6955C37.6369 8.63496 37.7716 8.57145 37.9159 8.50382C37.8249 8.45776 37.7435 8.41556 37.6682 8.37651C37.523 8.30124 37.4005 8.23772 37.2748 8.18094C36.614 7.88246 35.9527 7.58486 35.2915 7.28726L35.2897 7.28647L35.2889 7.28611L35.2887 7.28601C33.6782 6.56118 32.0676 5.83634 30.4633 5.09881C30.1222 4.94201 29.8673 4.9441 29.5326 5.11299C28.0546 5.85888 26.5703 6.59292 25.0859 7.32698L25.0859 7.32699L25.0852 7.32735C24.4429 7.64499 23.8006 7.96263 23.1588 8.28123C23.0676 8.32649 22.9816 8.38145 22.8878 8.44132C22.8419 8.47062 22.7941 8.5011 22.7431 8.53219C22.7748 8.55519 22.8023 8.57675 22.8275 8.59652C22.8754 8.63407 22.915 8.66512 22.9593 8.68714C23.6513 9.03105 24.3435 9.37445 25.0358 9.71785L25.0358 9.71787L25.0359 9.71789C26.5743 10.481 28.1126 11.2442 29.648 12.0129C29.8886 12.1333 30.0741 12.1116 30.3093 12.0028C31.8625 11.2845 33.4189 10.5728 34.9754 9.86122C35.5782 9.58562 36.181 9.31003 36.7836 9.03404C37.0175 8.92696 37.2501 8.81731 37.5081 8.69569L37.5082 8.69562L37.5085 8.6955ZM26.5377 13.7255L25.5268 14.1882C24.8034 14.5192 24.0966 14.8427 23.39 15.1667L23.1691 15.2679L23.1666 15.2691C21.9407 15.831 20.7147 16.3931 19.4897 16.9572C19.236 17.074 19.0082 17.1514 18.7107 17.0149C17.1255 16.2874 15.5356 15.5697 13.9457 14.852L13.9433 14.8508C13.3191 14.5691 12.6949 14.2873 12.071 14.0049C12.0496 13.9953 12.0319 13.9782 12.0065 13.9537C11.992 13.9397 11.9749 13.9233 11.9533 13.9044C11.9904 13.8792 12.026 13.8531 12.061 13.8274L12.061 13.8274L12.061 13.8274C12.1344 13.7735 12.2054 13.7215 12.2834 13.6827C13.072 13.2904 13.861 12.899 14.6501 12.5076C16.1065 11.7851 17.5628 11.0627 19.0161 10.3345C19.3104 10.1869 19.5486 10.1889 19.8441 10.3373C21.2625 11.0489 22.6849 11.7532 24.1073 12.4574C24.8082 12.8045 25.5091 13.1515 26.2096 13.4994C26.2745 13.5317 26.3333 13.5755 26.4063 13.63L26.4064 13.63C26.4451 13.6589 26.4879 13.6908 26.5377 13.7255Z" fill="#FF9500"/>
</svg>
