<svg width="19" height="20" viewBox="0 0 19 20" fill="none" xmlns="http://www.w3.org/2000/svg">
<path fill-rule="evenodd" clip-rule="evenodd" d="M5.27753 10.3649C5.33508 10.0389 5.30111 9.73469 5.30724 9.43278C5.31325 9.13564 5.30853 8.83829 5.30853 8.54103C5.30853 8.23567 5.30856 7.9303 5.30856 7.62318C5.52878 7.66096 8.78643 9.16609 9.14981 9.39586V19.9948C9.04246 19.9372 8.9559 19.8951 8.87372 19.846C6.02458 18.1453 3.17584 16.444 0.327102 14.7427C0.268291 14.7076 0.210984 14.67 0.150824 14.6373C0.0467871 14.5807 -0.0111953 14.5025 0.00180548 14.3808C0.00790727 14.3239 0.00251071 14.2659 0.00251071 14.2083C0.00248005 11.2836 0.00248005 8.359 0.00248005 5.43432V5.08777C1.226 5.66024 2.40558 6.21215 3.61732 6.77911V7.08387C3.61732 7.81263 3.6237 8.54151 3.61303 9.27011C3.61027 9.45834 3.66957 9.56529 3.84508 9.65048C4.25957 9.85173 4.66284 10.0746 5.07188 10.2866C5.12891 10.3161 5.19284 10.3331 5.27753 10.3649M18.9943 5.09465V5.42975C18.9943 8.36469 18.9915 11.2996 19 14.2345C19.0007 14.4653 18.9255 14.5923 18.7239 14.7122C15.8794 16.4031 13.0405 18.1028 10.1999 19.7999C10.0924 19.8642 9.98191 19.9239 9.8477 20V9.36517C11.1095 8.77488 12.3765 8.18221 13.69 7.56772V10.3661C13.7925 10.3312 13.857 10.3178 13.9129 10.2889C14.3307 10.0723 14.7425 9.84425 15.1657 9.63826C15.336 9.55536 15.3811 9.44401 15.3796 9.27312C15.3734 8.54424 15.3851 7.81513 15.3719 7.08643C15.368 6.86706 15.4291 6.74317 15.6439 6.64567C16.6893 6.17103 17.7263 5.6788 18.7664 5.19319C18.8271 5.16488 18.8893 5.13991 18.9943 5.09465M0.0667942 4.28398C0.136428 4.24482 0.190823 4.20892 0.249572 4.18189C1.49633 3.60874 2.74438 3.03818 3.98973 2.46216C4.15028 2.38791 4.28433 2.36508 4.45736 2.45254C5.61977 3.04026 6.78858 3.61589 7.95494 4.19617C7.98046 4.20886 8.00146 4.23008 8.04534 4.26285C7.99622 4.29831 7.9585 4.33428 7.91358 4.35665C6.74759 4.93759 5.5803 5.51616 4.41489 6.09826C4.29491 6.15815 4.19421 6.18398 4.05715 6.12123C2.75588 5.52594 1.45055 4.93902 0.146853 4.34873C0.123151 4.33797 0.105061 4.31547 0.0667942 4.28398M18.958 4.25191C18.7408 4.3537 18.567 4.4368 18.3918 4.51702C17.3125 5.01133 16.232 5.50314 15.1546 6.00141C15.0371 6.05579 14.9443 6.06667 14.824 6.00647C13.7109 5.44911 12.5946 4.89768 11.4797 4.34357C11.4458 4.32676 11.4175 4.29944 11.3715 4.26609C11.4493 4.21878 11.5115 4.17432 11.5794 4.14062C12.642 3.61311 13.7074 3.09088 14.7663 2.55649C14.9336 2.47205 15.0611 2.47101 15.2316 2.5494C16.3636 3.06979 17.5018 3.57753 18.6374 4.09047C18.7329 4.13359 18.8246 4.18448 18.958 4.25191M13.2688 6.86274C12.7271 7.11077 12.2109 7.3468 11.695 7.58333C11.0448 7.8814 10.3945 8.1794 9.74487 8.4786C9.61799 8.537 9.50411 8.57571 9.35534 8.50744C8.25119 8.00071 7.14244 7.50345 6.0355 7.00246C6.0187 6.99489 6.00634 6.97803 5.97663 6.95222C6.03418 6.9131 6.08413 6.86998 6.14171 6.84135C7.26371 6.28312 8.38773 5.72865 9.50804 5.16724C9.65518 5.09346 9.77428 5.09447 9.92207 5.16864C10.9807 5.69981 12.0438 6.22272 13.1048 6.74972C13.1545 6.77439 13.197 6.81271 13.2688 6.86274M5.9477 1.57392C6.37031 1.37917 6.75071 1.20318 7.13175 1.02839C7.83548 0.705565 8.54206 0.388401 9.24178 0.0575002C9.4103 -0.0221782 9.54726 -0.0166657 9.71352 0.0592881C10.8546 0.580386 11.9997 1.09302 13.1432 1.60914C13.1784 1.62503 13.2097 1.64907 13.2618 1.68102C13.1873 1.72908 13.1278 1.77622 13.0609 1.80941C12.0171 2.32774 10.9715 2.84243 9.92898 3.3632C9.7856 3.4348 9.66614 3.44765 9.51485 3.37178C8.37692 2.80131 7.23444 2.23945 6.09383 1.67401C6.05974 1.65712 6.03045 1.6311 5.9477 1.57392" fill="#FF9500"/>
</svg>
