<svg width="23" height="24" viewBox="0 0 23 24" fill="none" xmlns="http://www.w3.org/2000/svg">
<path fill-rule="evenodd" clip-rule="evenodd" d="M6.38859 12.4379C6.45826 12.0467 6.41713 11.6816 6.42455 11.3193C6.43183 10.9628 6.42611 10.6059 6.42611 10.2492C6.42611 9.8828 6.42615 9.51636 6.42615 9.14781C6.69273 9.19315 10.6362 10.9993 11.0761 11.275V23.9938C10.9461 23.9246 10.8414 23.8741 10.7419 23.8152C7.29292 21.7744 3.84444 19.7328 0.395965 17.6913C0.324774 17.6492 0.255401 17.604 0.182577 17.5648C0.056637 17.4968 -0.0135522 17.403 0.00218558 17.257C0.00957196 17.1887 0.00303928 17.119 0.00303928 17.05C0.00300216 13.5404 0.00300216 10.0308 0.00300216 6.52118V6.10533C1.4841 6.79229 2.91201 7.45458 4.37886 8.13493V8.50065C4.37886 9.37516 4.38658 10.2498 4.37366 11.1241C4.37032 11.35 4.44211 11.4783 4.65457 11.5806C5.15632 11.8221 5.64449 12.0896 6.13964 12.3439C6.20868 12.3793 6.28607 12.3997 6.38859 12.4379M22.9931 6.11358V6.5157C22.9931 10.0376 22.9897 13.5595 23 17.0814C23.0008 17.3584 22.9099 17.5108 22.6658 17.6547C19.2225 19.6838 15.7859 21.7234 12.3473 23.7599C12.2171 23.837 12.0834 23.9087 11.9209 24V11.2382C13.4484 10.5299 14.9821 9.81865 16.5721 9.08127V12.4393C16.6962 12.3975 16.7742 12.3814 16.842 12.3466C17.3477 12.0868 17.8462 11.8131 18.3585 11.5659C18.5647 11.4664 18.6192 11.3328 18.6175 11.1277C18.61 10.2531 18.6241 9.37816 18.6081 8.50372C18.6033 8.24048 18.6774 8.0918 18.9373 7.9748C20.2029 7.40523 21.4581 6.81456 22.7172 6.23183C22.7907 6.19786 22.866 6.1679 22.9931 6.11358M0.0808561 5.14077C0.16515 5.09379 0.230996 5.0507 0.302114 5.01827C1.81135 4.33049 3.32214 3.64581 4.82967 2.95459C5.02402 2.86549 5.1863 2.8381 5.39575 2.94304C6.80287 3.64831 8.21776 4.33907 9.62967 5.0354C9.66055 5.05063 9.68598 5.07609 9.73909 5.11542C9.67963 5.15797 9.63398 5.20113 9.5796 5.22799C8.16813 5.9251 6.7551 6.6194 5.34434 7.31791C5.1991 7.38978 5.07721 7.42078 4.91129 7.34548C3.33606 6.63112 1.75593 5.92682 0.17777 5.21847C0.149078 5.20557 0.127179 5.17857 0.0808561 5.14077M22.9491 5.10229C22.6862 5.22444 22.4758 5.32416 22.2637 5.42042C20.9572 6.01359 19.6493 6.60376 18.3451 7.20169C18.2028 7.26695 18.0905 7.28 17.9449 7.20777C16.5974 6.53894 15.2461 5.87722 13.8964 5.21228C13.8555 5.19211 13.8212 5.15933 13.7655 5.11931C13.8596 5.06253 13.935 5.00918 14.0172 4.96874C15.3035 4.33574 16.5932 3.70906 17.875 3.06779C18.0776 2.96646 18.2319 2.96521 18.4383 3.05928C19.8086 3.68374 21.1864 4.29304 22.5611 4.90856C22.6766 4.9603 22.7877 5.02137 22.9491 5.10229M16.0623 8.23529C15.4064 8.53293 14.7816 8.81616 14.1571 9.1C13.37 9.45768 12.5829 9.81528 11.7964 10.1743C11.6428 10.2444 11.505 10.2908 11.3249 10.2089C9.98828 9.60085 8.64611 9.00414 7.30613 8.40295C7.28579 8.39387 7.27083 8.37363 7.23487 8.34267C7.30454 8.29572 7.365 8.24398 7.43471 8.20962C8.79291 7.53975 10.1536 6.87438 11.5097 6.20068C11.6879 6.11215 11.832 6.11336 12.0109 6.20236C13.2925 6.83977 14.5794 7.46727 15.8637 8.09966C15.9239 8.12927 15.9754 8.17525 16.0623 8.23529M7.19984 1.88871C7.71143 1.655 8.17191 1.44382 8.63317 1.23407C9.48506 0.846678 10.3404 0.466081 11.1874 0.0690003C11.3914 -0.0266138 11.5572 -0.0199988 11.7585 0.0711457C13.1398 0.696463 14.526 1.31163 15.9102 1.93097C15.9528 1.95003 15.9907 1.97889 16.0538 2.01722C15.9636 2.07489 15.8915 2.13146 15.8105 2.17129C14.547 2.79329 13.2812 3.41092 12.0193 4.03584C11.8457 4.12177 11.7011 4.13718 11.518 4.04614C10.1405 3.36157 8.75748 2.68734 7.37674 2.00882C7.33547 1.98854 7.30002 1.95733 7.19984 1.88871" fill="#C8C7CC"/>
</svg>
