<svg width="15" height="16" viewBox="0 0 15 16" fill="none" xmlns="http://www.w3.org/2000/svg">
<path fill-rule="evenodd" clip-rule="evenodd" d="M4.16647 8.29192C4.21191 8.03111 4.18509 7.78775 4.18993 7.54622C4.19467 7.30851 4.19094 7.07063 4.19094 6.83282C4.19094 6.58853 4.19097 6.34424 4.19097 6.09854C4.36482 6.12877 6.93665 7.33287 7.22353 7.51669V15.9959C7.13878 15.9498 7.07045 15.916 7.00557 15.8768C4.75625 14.5163 2.50724 13.1552 0.258238 11.7942C0.211809 11.7661 0.166566 11.736 0.119072 11.7098C0.0369371 11.6646 -0.00883842 11.602 0.00142538 11.5047C0.00624259 11.4591 0.00198214 11.4127 0.00198214 11.3667C0.00195793 9.02692 0.00195793 6.6872 0.00195793 4.34745V4.07022C0.967893 4.52819 1.89914 4.96972 2.85578 5.42328V5.6671C2.85578 6.2501 2.86081 6.83321 2.85239 7.41609C2.85021 7.56668 2.89703 7.65223 3.03559 7.72038C3.36282 7.88138 3.68119 8.05972 4.00411 8.22925C4.04914 8.25288 4.09961 8.26649 4.16647 8.29192M14.9955 4.07572V4.3438C14.9955 6.69175 14.9933 9.03967 15 11.3876C15.0005 11.5723 14.9412 11.6739 14.782 11.7698C12.5364 13.1225 10.2951 14.4822 8.05259 15.8399C7.96767 15.8913 7.88045 15.9391 7.7745 16V7.49213C8.77069 7.0199 9.77091 6.54576 10.8079 6.05418V8.2929C10.8888 8.26498 10.9397 8.25428 10.9839 8.23109C11.3137 8.05788 11.6388 7.8754 11.9729 7.71061C12.1074 7.64429 12.143 7.55521 12.1418 7.4185C12.1369 6.8354 12.1462 6.2521 12.1357 5.66915C12.1326 5.49365 12.1809 5.39453 12.3504 5.31654C13.1758 4.93682 13.9944 4.54304 14.8156 4.15455C14.8635 4.13191 14.9126 4.11193 14.9955 4.07572M0.0527323 3.42718C0.107707 3.39586 0.15065 3.36714 0.197031 3.34551C1.18131 2.88699 2.16661 2.43054 3.14979 1.96973C3.27653 1.91033 3.38237 1.89207 3.51897 1.96203C4.43666 2.43221 5.35941 2.89271 6.28022 3.35693C6.30036 3.36709 6.31694 3.38406 6.35158 3.41028C6.3128 3.43865 6.28303 3.46742 6.24756 3.48532C5.32704 3.95007 4.4055 4.41293 3.48544 4.87861C3.39072 4.92652 3.31122 4.94719 3.20302 4.89698C2.17569 4.42075 1.14517 3.95121 0.115937 3.47898C0.0972249 3.47038 0.0829427 3.45238 0.0527323 3.42718M14.9668 3.40153C14.7954 3.48296 14.6582 3.54944 14.5198 3.61362C13.6678 4.00906 12.8147 4.40251 11.9642 4.80113C11.8714 4.84463 11.7981 4.85333 11.7032 4.80518C10.8244 4.35929 9.94308 3.91815 9.06288 3.47485C9.03618 3.46141 9.01381 3.43955 8.97753 3.41288C9.03889 3.37502 9.08803 3.33945 9.14163 3.31249C9.98052 2.89049 10.8216 2.47271 11.6576 2.0452C11.7897 1.97764 11.8903 1.9768 12.025 2.03952C12.9187 2.45583 13.8172 2.86203 14.7137 3.27237C14.7891 3.30687 14.8615 3.34758 14.9668 3.40153M10.4754 5.49019C10.0477 5.68862 9.64017 5.87744 9.23289 6.06667C8.71958 6.30512 8.20622 6.54352 7.69332 6.78288C7.59315 6.8296 7.50325 6.86057 7.38579 6.80595C6.5141 6.40056 5.63877 6.00276 4.76487 5.60197C4.7516 5.59591 4.74185 5.58242 4.71839 5.56178C4.76383 5.53048 4.80326 5.49599 4.84872 5.47308C5.73451 5.0265 6.62189 4.58292 7.50634 4.13379C7.62251 4.07477 7.71653 4.07558 7.83321 4.13491C8.66901 4.55984 9.50829 4.97818 10.3459 5.39978C10.3851 5.41951 10.4187 5.45017 10.4754 5.49019M4.69555 1.25914C5.0292 1.10333 5.32951 0.962546 5.63033 0.822713C6.18591 0.564452 6.74373 0.310721 7.29614 0.0460002C7.42918 -0.0177426 7.53731 -0.0133325 7.66857 0.0474305C8.56941 0.464309 9.47347 0.874417 10.3762 1.28732C10.404 1.30002 10.4287 1.31926 10.4699 1.34481C10.411 1.38326 10.364 1.42097 10.3112 1.44753C9.48719 1.86219 8.66168 2.27394 7.83867 2.69056C7.72548 2.74784 7.63117 2.75812 7.51173 2.69743C6.61335 2.24105 5.7114 1.79156 4.81092 1.33921C4.784 1.32569 4.76088 1.30488 4.69555 1.25914" fill="#8A8A8F"/>
</svg>
