<svg width="24" height="21" viewBox="0 0 24 21" fill="none" xmlns="http://www.w3.org/2000/svg">
<path fill-rule="evenodd" clip-rule="evenodd" d="M3.42857 10.5C3.42857 4.70167 8.03429 0 13.7143 0C19.3943 0 24 4.70167 24 10.5C24 16.2983 19.3943 21 13.7143 21C10.8686 21 8.30857 19.8217 6.44571 17.92L8.06857 16.2633C9.50857 17.745 11.5086 18.6667 13.7143 18.6667C18.1371 18.6667 21.7143 15.015 21.7143 10.5C21.7143 5.985 18.1371 2.33333 13.7143 2.33333C9.29143 2.33333 5.71429 5.985 5.71429 10.5H9.14286L4.52571 15.2017L4.44571 15.0383L0 10.5H3.42857ZM12.5714 11.6667V5.83333H14.2857V10.7917L18.2857 13.2183L17.4629 14.63L12.5714 11.6667Z" fill="#08776E"/>
</svg>
