<svg width="24" height="24" viewBox="0 0 24 24" fill="none" xmlns="http://www.w3.org/2000/svg">
<path fill-rule="evenodd" clip-rule="evenodd" d="M19.7813 5.85938C19.7813 9.09023 17.1528 11.7188 13.9219 11.7188C10.691 11.7188 8.06252 9.09023 8.06252 5.85938C8.06252 2.62852 10.691 0 13.9219 0C17.1528 0 19.7813 2.62852 19.7813 5.85938ZM13.4208 3.88617C13.2777 3.99586 13.1989 4.16194 13.1718 4.30598C13.1344 4.50469 13.1817 4.68928 13.2926 4.77619C13.3317 4.8068 13.3747 4.83689 13.4208 4.86647V3.88617ZM0.703126 13.2188H3.14063C3.52894 13.2188 3.84376 13.5336 3.84376 13.9219V23.2969C3.84376 23.6852 3.52894 24 3.14063 24H0.703126C0.314813 24 0 23.6852 0 23.2969V13.9219C0 13.5336 0.314813 13.2188 0.703126 13.2188ZM18.7506 18.2085L21.4102 14.7306C22.2486 13.6341 24 14.227 24 15.6073C24 15.8841 23.9205 16.155 23.7708 16.3878L21.0268 20.6563C20.2505 21.8638 18.9135 22.5938 17.478 22.5938H10.875H9.93752H5.25001V14.625L5.77961 14.2467C7.37491 13.1072 9.55563 13.2662 10.9688 14.625H15.8907C16.7861 14.625 17.5139 15.3423 17.531 16.2336C17.5486 17.1534 16.7782 17.9062 15.8583 17.9062H11.5781C11.1898 17.9062 10.875 18.2211 10.875 18.6094C10.875 18.9977 11.1898 19.3125 11.5781 19.3125H16.5164C17.3924 19.3125 18.2184 18.9043 18.7506 18.2085ZM12.1482 7.77511C12.2899 7.55855 12.5804 7.49761 12.7971 7.63945C13.0503 7.80506 13.2089 7.87687 13.4208 7.90664V5.92706C13.1214 5.78986 12.8976 5.65781 12.714 5.51377C12.325 5.20866 12.1474 4.67934 12.2505 4.13227C12.3628 3.53611 12.7778 3.06178 13.3334 2.89444C13.3628 2.88558 13.3919 2.87747 13.4208 2.86983V2.57812C13.4208 2.31928 13.6307 2.10938 13.8896 2.10938C14.1484 2.10938 14.3583 2.31928 14.3583 2.57812V2.81845C14.8134 2.89725 15.1351 3.12131 15.2909 3.30014C15.461 3.49533 15.4405 3.79144 15.2453 3.96145C15.0512 4.13058 14.7572 4.11136 14.5867 3.91903C14.576 3.9082 14.5015 3.83648 14.3583 3.78366V5.29828C14.4415 5.32917 14.5247 5.35913 14.6063 5.388C15.4302 5.67928 15.8885 6.44203 15.7467 7.28602C15.6364 7.94203 15.1372 8.60733 14.3583 8.80491V9.14062C14.3583 9.39947 14.1484 9.60938 13.8896 9.60938C13.6307 9.60938 13.4208 9.39947 13.4208 9.14062V8.84991C13.0423 8.81719 12.7286 8.71495 12.2839 8.424C12.0672 8.28225 12.0065 7.99177 12.1482 7.77511ZM14.3583 6.29714C14.8655 6.51075 14.8529 6.94739 14.8221 7.13062C14.7794 7.38469 14.6219 7.65178 14.3583 7.80281V6.29714Z" fill="#08776E"/>
</svg>
