<svg width="10" height="10" viewBox="0 0 10 10" fill="none" xmlns="http://www.w3.org/2000/svg">
<path d="M5.75101 4.24899H9.24899C9.66433 4.24899 10.0005 4.58519 10 5C10 5.41534 9.6638 5.75154 9.24899 5.75101C9.08594 5.75154 5.75101 5.75101 5.75101 5.75101V9.24899C5.75101 9.66433 5.41481 10.0005 5 10C4.58466 10 4.24846 9.6638 4.24899 9.24899C4.24846 9.08594 4.24899 5.75101 4.24899 5.75101H0.75101C0.335671 5.75101 -0.000530495 5.41481 6.28427e-07 5C6.28427e-07 4.58466 0.336202 4.24846 0.75101 4.24899C0.914065 4.24846 4.24899 4.24899 4.24899 4.24899V0.75101C4.24899 0.335671 4.58519 -0.000530495 5 6.28427e-07C5.41534 6.28427e-07 5.75154 0.336202 5.75101 0.75101C5.75154 0.914065 5.75101 4.24899 5.75101 4.24899Z" fill="#C8C7CC"/>
</svg>
