<svg width="14" height="14" viewBox="0 0 14 14" fill="none" xmlns="http://www.w3.org/2000/svg">
<path opacity="0.9" fill-rule="evenodd" clip-rule="evenodd" d="M11.0198 5.50989C11.0198 6.66947 10.6616 7.74538 10.0498 8.63302L13.7079 12.2911C14.0984 12.6816 14.0971 13.3161 13.7066 13.7066C13.3161 14.0971 12.6816 14.0984 12.2911 13.7079L8.63302 10.0498C7.74538 10.6616 6.66947 11.0198 5.50989 11.0198C2.46686 11.0198 0 8.55292 0 5.50989C0 2.46686 2.46686 0 5.50989 0C8.55292 0 11.0198 2.46686 11.0198 5.50989ZM5.50989 10.018C7.99964 10.018 10.018 7.99964 10.018 5.50989C10.018 3.02014 7.99964 1.0018 5.50989 1.0018C3.02014 1.0018 1.0018 3.02014 1.0018 5.50989C1.0018 7.99964 3.02014 10.018 5.50989 10.018Z" fill="#8A8A8F"/>
</svg>
