<svg width="24" height="17" viewBox="0 0 24 17" fill="none" xmlns="http://www.w3.org/2000/svg">
<path fill-rule="evenodd" clip-rule="evenodd" d="M17.4545 4.25H20.7273L24 8.50053V13.8125H21.8182C21.8182 15.5768 20.3564 17 18.5455 17C16.7345 17 15.2727 15.5768 15.2727 13.8125H8.72727C8.72727 15.5768 7.26545 17 5.45455 17C3.64364 17 2.18182 15.5768 2.18182 13.8125H0V2.12553C0 0.956781 0.981818 0 2.18182 0H17.4545V4.25ZM3.81818 13.8125C3.81818 14.6949 4.54909 15.4062 5.45455 15.4062C6.36 15.4062 7.09091 14.6949 7.09091 13.8125C7.09091 12.9312 6.36 12.2188 5.45455 12.2188C4.54909 12.2188 3.81818 12.9312 3.81818 13.8125ZM20.1818 5.84375L22.32 8.50053H17.4545V5.84375H20.1818ZM16.9091 13.8125C16.9091 14.6949 17.64 15.4062 18.5455 15.4062C19.4509 15.4062 20.1818 14.6949 20.1818 13.8125C20.1818 12.9312 19.4509 12.2188 18.5455 12.2188C17.64 12.2188 16.9091 12.9312 16.9091 13.8125Z" fill="#08776E"/>
</svg>
