<svg width="30" height="32" viewBox="0 0 30 32" fill="none" xmlns="http://www.w3.org/2000/svg">
<path fill-rule="evenodd" clip-rule="evenodd" d="M10.0177 2.22546C9.81422 2.32058 9.60612 2.41787 9.3911 2.51828C9.44041 2.5528 9.4777 2.58023 9.50791 2.60245C9.55775 2.6391 9.58832 2.66159 9.62184 2.67842C10.1497 2.94358 10.6778 3.20825 11.2059 3.47292C12.4796 4.11127 13.7533 4.74962 15.0235 5.39485C15.2623 5.51624 15.451 5.49569 15.6773 5.38112C16.7081 4.85933 17.7409 4.34135 18.7736 3.82338C19.39 3.51421 20.0064 3.20504 20.6225 2.89506C20.6932 2.85948 20.7587 2.81388 20.8297 2.76454C20.8646 2.74023 20.9009 2.71501 20.9397 2.68962C20.9113 2.67198 20.8868 2.65584 20.8646 2.64122C20.8225 2.6135 20.7888 2.59127 20.7524 2.57463C20.2254 2.33357 19.6981 2.09299 19.1708 1.85241C17.8919 1.26882 16.6129 0.685235 15.3371 0.0948609C15.0746 -0.0266651 14.8584 -0.0354851 14.5923 0.0920004C13.8102 0.466772 13.0227 0.83053 12.2353 1.19428C11.9103 1.34441 11.5853 1.49453 11.2607 1.64543C10.8529 1.83498 10.4456 2.0254 10.0177 2.22546ZM0.105465 6.85437C0.142183 6.83344 0.176218 6.8131 0.208722 6.79368C0.273546 6.75493 0.332279 6.71983 0.394061 6.69103C1.02871 6.39538 1.66357 6.10016 2.29843 5.80495L2.29847 5.80493L2.29859 5.80487L2.29872 5.80481C3.63299 5.18436 4.96726 4.56391 6.29957 3.93946C6.55307 3.82065 6.76473 3.78413 7.03793 3.92406C8.36415 4.60355 9.69565 5.27293 11.0272 5.94232C11.5383 6.19931 12.0495 6.4563 12.5604 6.71387C12.5863 6.72688 12.6092 6.74551 12.6405 6.77101C12.6581 6.7853 12.6783 6.80174 12.7032 6.82056C12.6776 6.83927 12.654 6.85806 12.6313 6.87613L12.6313 6.87613C12.5851 6.91288 12.5427 6.94665 12.4951 6.97065C11.7543 7.34468 11.0131 7.71811 10.2719 8.09153C9.17122 8.64609 8.07053 9.20064 6.97088 9.75721C6.78144 9.85304 6.62244 9.89437 6.40603 9.79397C4.94056 9.11462 3.47184 8.44209 2.00311 7.76956L2.00296 7.76949L2.00278 7.76941C1.41241 7.49907 0.822034 7.22874 0.231874 6.95797C0.207827 6.94691 0.187439 6.92809 0.159907 6.90269C0.14459 6.88855 0.127063 6.87238 0.105465 6.85437ZM8.38272 15.5341C8.38942 15.8741 8.39624 16.2205 8.33294 16.5838C8.28772 16.5666 8.24625 16.5521 8.20768 16.5387L8.20761 16.5386C8.13215 16.5123 8.06781 16.4898 8.00823 16.4585C7.79045 16.3442 7.57372 16.2278 7.35699 16.1115L7.35686 16.1114C6.93088 15.8828 6.50492 15.6542 6.07118 15.4408C5.79405 15.3045 5.70042 15.1334 5.70478 14.8322C5.71704 13.9838 5.71504 13.1352 5.71305 12.2866C5.7123 11.9691 5.71156 11.6516 5.71156 11.3342V10.8466L0.00391587 8.14043V8.69491L0.00396428 22.7333C0.00396428 22.7627 0.00483382 22.7922 0.00570327 22.8217C0.00755555 22.8845 0.00940747 22.9473 0.00285076 23.0093C-0.0176768 23.204 0.0738743 23.3291 0.238143 23.4197C0.300708 23.4541 0.36132 23.492 0.421943 23.5299C0.45336 23.5496 0.48478 23.5692 0.516476 23.5884L1.41426 24.1317L1.42122 24.1359L1.43043 24.1415L1.43439 24.1439C5.62643 26.6807 9.81852 29.2176 14.0111 31.7536C14.0974 31.8058 14.1868 31.8531 14.2868 31.9061C14.3372 31.9327 14.3903 31.9608 14.4471 31.9917V15.0334C13.8733 14.6657 8.72965 12.2575 8.38194 12.1971L8.38189 13.6656C8.38189 13.811 8.38258 13.9563 8.38328 14.1017C8.38486 14.432 8.38644 14.7623 8.37985 15.0924C8.37691 15.239 8.37981 15.3859 8.38272 15.5341ZM29.9909 8.68761V8.15144C29.9322 8.17713 29.8819 8.19874 29.8372 8.21794C29.7558 8.25288 29.693 8.27988 29.6312 8.30911C29.1821 8.52154 28.7335 8.73476 28.2848 8.94798L28.2835 8.94861C27.0917 9.51505 25.8998 10.0815 24.7009 10.6331C24.3618 10.7891 24.2652 10.9873 24.2714 11.3383C24.2836 12.017 24.2824 12.6958 24.2812 13.3747C24.2804 13.8622 24.2796 14.3496 24.2836 14.837C24.2859 15.1104 24.2148 15.2886 23.9459 15.4212C23.5077 15.6373 23.0773 15.8686 22.6469 16.1C22.4209 16.2214 22.1949 16.3429 21.9678 16.4622C21.9104 16.4923 21.8474 16.5119 21.766 16.5372L21.7659 16.5372C21.7219 16.5509 21.6725 16.5662 21.6158 16.5858V12.1084L15.549 14.9843V32C15.6193 31.9596 15.6855 31.9221 15.7487 31.8863C15.8761 31.8141 15.9917 31.7486 16.1052 31.6799C17.1173 31.0671 18.1294 30.4541 19.1414 29.8411C22.6139 27.7378 26.0863 25.6345 29.564 23.5396C29.8824 23.3477 30.0011 23.1445 30 22.7752C29.9893 19.0295 29.99 15.2839 29.9906 11.5382V11.5363C29.9908 10.5867 29.991 9.63716 29.9909 8.68761ZM29.6119 6.95641C29.7133 6.90798 29.8197 6.85717 29.9336 6.80306C29.8617 6.76621 29.7975 6.73245 29.738 6.70122L29.738 6.7012C29.6234 6.64099 29.5267 6.59017 29.4275 6.54475C28.9054 6.30578 28.3829 6.06751 27.8605 5.82925C26.5887 5.24923 25.3169 4.66922 24.05 4.07904C23.7807 3.95361 23.5794 3.95528 23.3152 4.09039C22.1484 4.68709 20.9766 5.27432 19.8047 5.86156L19.804 5.86194C19.2969 6.11603 18.7899 6.37012 18.2833 6.62499C18.2113 6.66119 18.1433 6.70516 18.0693 6.75306C18.0331 6.7765 17.9954 6.80088 17.9551 6.82575C17.9801 6.84415 18.0018 6.86141 18.0217 6.87722C18.0595 6.90726 18.0908 6.93209 18.1258 6.94971C18.6715 7.22457 19.2175 7.49901 19.7635 7.77346L19.7635 7.77347L19.765 7.77425L19.7656 7.77454C20.98 8.38498 22.1943 8.99541 23.4063 9.61036C23.5963 9.70667 23.7427 9.68926 23.9284 9.60225C25.1544 9.02766 26.383 8.45845 27.6116 7.88923L27.6121 7.889C28.088 7.66852 28.5639 7.44803 29.0397 7.22723C29.2244 7.14153 29.4081 7.05377 29.6119 6.95642L29.6119 6.95641ZM20.9508 10.9804L20.1516 11.351C19.5809 11.6157 19.0232 11.8743 18.4658 12.1333L18.2919 12.2141L18.2896 12.2152C17.3217 12.6648 16.3538 13.1144 15.3866 13.5658C15.1863 13.6592 15.0065 13.7211 14.7716 13.6119C13.5202 13.03 12.2651 12.4558 11.01 11.8817L11.0098 11.8816C10.5164 11.6559 10.023 11.4301 9.52974 11.2039C9.51288 11.1962 9.49885 11.1825 9.47883 11.163C9.46735 11.1518 9.45389 11.1386 9.43678 11.1236C9.46611 11.1034 9.49419 11.0825 9.52183 11.0619C9.57982 11.0188 9.63587 10.9772 9.69744 10.9462C10.3199 10.6323 10.9428 10.3192 11.5657 10.0061L11.566 10.006C12.7157 9.42808 13.8654 8.85016 15.0127 8.26758C15.245 8.14953 15.4331 8.15115 15.6664 8.26982C16.7859 8.83898 17.9085 9.40222 19.0311 9.96546L19.032 9.96589C19.5853 10.2435 20.1387 10.5212 20.6918 10.7996C20.743 10.8253 20.7894 10.8604 20.8471 10.9039L20.8471 10.904L20.8471 10.904C20.8777 10.9271 20.9115 10.9526 20.9508 10.9804Z" fill="#C8C7CC"/>
</svg>
