<svg width="15" height="16" viewBox="0 0 15 16" fill="none" xmlns="http://www.w3.org/2000/svg">
<path fill-rule="evenodd" clip-rule="evenodd" d="M5.00883 1.11273C4.90711 1.16029 4.80306 1.20893 4.69555 1.25914C4.72021 1.2764 4.73885 1.29011 4.75396 1.30122C4.77887 1.31955 4.79416 1.33079 4.81092 1.33921C5.07484 1.47179 5.33889 1.60412 5.60294 1.73646C6.2398 2.05563 6.87666 2.37481 7.51173 2.69743C7.63117 2.75812 7.72548 2.74784 7.83867 2.69056C8.35406 2.42967 8.87043 2.17068 9.38681 1.91169C9.69501 1.7571 10.0032 1.60252 10.3112 1.44753C10.3466 1.42974 10.3794 1.40694 10.4148 1.38227C10.4323 1.37011 10.4504 1.3575 10.4699 1.34481C10.4556 1.33599 10.4434 1.32792 10.4323 1.32061C10.4113 1.30675 10.3944 1.29563 10.3762 1.28732C10.1127 1.16679 9.84905 1.04649 9.58542 0.926203C8.94593 0.634411 8.30644 0.342618 7.66857 0.0474305C7.53731 -0.0133325 7.42918 -0.0177426 7.29614 0.0460002C6.90511 0.233386 6.51137 0.415265 6.11763 0.597142C5.95513 0.672204 5.79263 0.747265 5.63033 0.822713C5.42644 0.917488 5.22279 1.0127 5.00883 1.11273ZM0.0527323 3.42718C0.0710917 3.41672 0.0881092 3.40655 0.104361 3.39684C0.136773 3.37747 0.166139 3.35991 0.197031 3.34551C0.514355 3.19769 0.831785 3.05008 1.14921 2.90247L1.14923 2.90247L1.1493 2.90244L1.14936 2.90241C1.81649 2.59218 2.48363 2.28196 3.14979 1.96973C3.27653 1.91033 3.38237 1.89207 3.51897 1.96203C4.18208 2.30177 4.84783 2.63647 5.51358 2.97116C5.76917 3.09965 6.02477 3.22815 6.28022 3.35693C6.29313 3.36344 6.30458 3.37275 6.32026 3.38551C6.32904 3.39265 6.33915 3.40087 6.35158 3.41028C6.3388 3.41963 6.32699 3.42903 6.31564 3.43806L6.31564 3.43807C6.29255 3.45644 6.27134 3.47332 6.24756 3.48532C5.87714 3.67234 5.50655 3.85905 5.13596 4.04577C4.58561 4.32304 4.03526 4.60032 3.48544 4.87861C3.39072 4.92652 3.31122 4.94719 3.20302 4.89699C2.47028 4.55731 1.73592 4.22105 1.00156 3.88478L1.00148 3.88474L1.00139 3.8847C0.706203 3.74954 0.411017 3.61437 0.115937 3.47898C0.103914 3.47345 0.0937194 3.46405 0.0799534 3.45134C0.0722951 3.44428 0.0635313 3.43619 0.0527323 3.42718ZM4.19136 7.76703C4.19471 7.93705 4.19812 8.11025 4.16647 8.29192C4.14386 8.28332 4.12312 8.27607 4.10384 8.26933L4.1038 8.26932C4.06608 8.25613 4.0339 8.24488 4.00411 8.22925C3.89523 8.17209 3.78686 8.11392 3.67849 8.05576L3.67843 8.05572C3.46544 7.9414 3.25246 7.82709 3.03559 7.72038C2.89703 7.65223 2.85021 7.56668 2.85239 7.41609C2.85852 6.9919 2.85752 6.56759 2.85652 6.14329C2.85615 5.98456 2.85578 5.82582 2.85578 5.6671V5.42328L0.00195793 4.07022V4.34745L0.00198214 11.3667C0.00198214 11.3814 0.00241691 11.3961 0.00285164 11.4109C0.00377778 11.4423 0.00470374 11.4737 0.00142538 11.5047C-0.00883842 11.602 0.0369371 11.6646 0.119072 11.7098C0.150354 11.7271 0.18066 11.746 0.210971 11.765C0.22668 11.7748 0.24239 11.7846 0.258238 11.7942L0.707128 12.0658L0.710609 12.068L0.715214 12.0707L0.717194 12.0719C2.81322 13.3404 4.90926 14.6088 7.00557 15.8768C7.04872 15.9029 7.09339 15.9266 7.14341 15.953C7.1686 15.9664 7.19515 15.9804 7.22353 15.9959V7.51669C6.93665 7.33287 4.36482 6.12877 4.19097 6.09854L4.19094 6.83282C4.19094 6.90549 4.19129 6.97816 4.19164 7.05083C4.19243 7.21599 4.19322 7.38115 4.18993 7.54622C4.18846 7.61951 4.1899 7.69297 4.19136 7.76703ZM14.9955 4.3438V4.07572C14.9661 4.08857 14.9409 4.09937 14.9186 4.10897C14.8779 4.12644 14.8465 4.13994 14.8156 4.15455C14.5911 4.26077 14.3667 4.36738 14.1424 4.47399L14.1418 4.4743C13.5458 4.75752 12.9499 5.04074 12.3504 5.31654C12.1809 5.39453 12.1326 5.49365 12.1357 5.66915C12.1418 6.00848 12.1412 6.34792 12.1406 6.68737C12.1402 6.93109 12.1398 7.17481 12.1418 7.4185C12.143 7.55521 12.1074 7.64429 11.9729 7.71061C11.7539 7.81866 11.5387 7.93432 11.3235 8.04998C11.2105 8.11071 11.0975 8.17145 10.9839 8.23108C10.9552 8.24614 10.9237 8.25593 10.883 8.26859L10.883 8.2686C10.861 8.27543 10.8363 8.28311 10.8079 8.2929V6.05418L7.7745 7.49213V16C7.80965 15.9798 7.84273 15.9611 7.87435 15.9431C7.93806 15.907 7.99584 15.8743 8.05259 15.8399L9.57071 14.9205C11.3069 13.8689 13.0432 12.8172 14.782 11.7698C14.9412 11.6739 15.0005 11.5723 15 11.3876C14.9947 9.51476 14.995 7.64193 14.9953 5.76908V5.76813L14.9955 4.3438ZM14.806 3.47821L14.9668 3.40153C14.9309 3.3831 14.8987 3.36622 14.869 3.35061L14.869 3.3506C14.8117 3.32049 14.7634 3.29509 14.7137 3.27237C14.4527 3.15289 14.1915 3.03376 13.9302 2.91462C13.2943 2.62462 12.6584 2.33461 12.025 2.03952C11.8903 1.9768 11.7897 1.97764 11.6576 2.0452C11.0742 2.34355 10.4883 2.63716 9.90237 2.93078L9.90199 2.93097C9.64847 3.05801 9.39495 3.18506 9.14163 3.31249C9.10564 3.3306 9.07166 3.35258 9.03464 3.37653C9.01653 3.38825 8.99769 3.40044 8.97753 3.41288C8.99004 3.42208 9.0009 3.4307 9.01086 3.43861C9.02976 3.45363 9.04539 3.46605 9.06288 3.47485C9.33576 3.61228 9.60874 3.74951 9.88173 3.88673L9.88174 3.88674L9.88251 3.88712L9.8828 3.88727C10.49 4.19249 11.0972 4.49771 11.7032 4.80518C11.7981 4.85333 11.8714 4.84463 11.9642 4.80113C12.5772 4.51383 13.1915 4.22922 13.8058 3.94462L13.8061 3.9445C14.044 3.83426 14.282 3.72401 14.5198 3.61362C14.6122 3.57077 14.7041 3.52688 14.806 3.47821L14.806 3.47821ZM10.4754 5.49019L10.0758 5.67552C9.79046 5.80785 9.51162 5.93717 9.23289 6.06667L9.14596 6.10705L9.14481 6.10758C8.66085 6.33239 8.17688 6.55721 7.69332 6.78288C7.59315 6.8296 7.50325 6.86057 7.38579 6.80595C6.76011 6.51498 6.13256 6.2279 5.50501 5.94083L5.50492 5.94079C5.2582 5.82793 5.01148 5.71507 4.76487 5.60197C4.75644 5.59812 4.74943 5.59127 4.73942 5.58149C4.73367 5.57588 4.72694 5.5693 4.71839 5.56178C4.73306 5.55168 4.7471 5.54124 4.76092 5.53097C4.78991 5.50942 4.81793 5.48859 4.84872 5.47308C5.15996 5.31616 5.4714 5.15961 5.78284 5.00307L5.78299 5.003C6.35785 4.71404 6.93271 4.42508 7.50634 4.13379C7.62251 4.07477 7.71653 4.07558 7.83321 4.13491C8.39295 4.41949 8.95425 4.70111 9.51555 4.98273L9.51598 4.98294C9.79267 5.12177 10.0694 5.26059 10.3459 5.39978C10.3715 5.41266 10.3947 5.43021 10.4235 5.45197L10.4235 5.45198L10.4235 5.45199C10.4389 5.46355 10.4557 5.47631 10.4754 5.49019Z" fill="#C8C7CC"/>
</svg>
